<svg id="Layer_1" data-name="Layer 1" xmlns="http://www.w3.org/2000/svg" viewBox="0 0 168.51 32.93"><defs><style>.cls-1{font-size:30.84px;font-family:Ubuntu-Medium, Ubuntu;font-weight:500;}.cls-1,.cls-2{fill:#152a35;}.cls-2{stroke:#152a35;stroke-miterlimit:10;}</style></defs><text class="cls-1" transform="translate(42.51 26.61)">libstackz</text><path class="cls-2" d="M39.34,16.51l-1.65,1-13,7.77a.8.8,0,0,1-.88,0L13.31,19,9.82,16.91l-.05,0c-.39-.23-.39-.55,0-.78l1.47-.87L23.8,7.71l.26-.14h.35a2.64,2.64,0,0,1,.29.15l11,6.55,3.68,2.2Zm-28.05,0,.24.16L23.77,24c.5.29.4.33,1,0l5.9-3.53,6-3.56c.34-.2.35-.53,0-.72L24.46,8.86a.39.39,0,0,0-.44,0L11.55,16.32Z" transform="translate(-8.98 -7.07)"/><path class="cls-2" d="M10.53,27.38l.26.14,5.15,3.08L24,35.43a.38.38,0,0,0,.43,0L35,29.11l2.69-1.61c.25-.15.3-.14.45.12l.25.41c.12.2.1.28-.1.4L34.86,30.5l-10.4,6.21a.41.41,0,0,1-.46,0l-8.07-4.83c-1.79-1.07-3.58-2.15-5.38-3.21-.43-.26-.56-.59-.24-1A2.53,2.53,0,0,1,10.53,27.38Z" transform="translate(-8.98 -7.07)"/><path class="cls-2" d="M38,21.69c.11.18.22.35.31.53a.52.52,0,0,1-.25.7L35.8,24.28,26.06,30.1l-1.33.79a.88.88,0,0,1-1,0l-11.8-7c-.5-.3-1-.6-1.51-.89a.57.57,0,0,1-.26-.79A.55.55,0,0,1,11,22l7.22,4.3,5.61,3.37a.69.69,0,0,0,.79,0l13.09-7.84Z" transform="translate(-8.98 -7.07)"/></svg>